<?xml version="1.0" encoding="UTF-8"?>
<svg id="Layer_2" data-name="Layer 2" xmlns="http://www.w3.org/2000/svg" viewBox="0 0 640.99 673.18">
  <defs>
    <style>
      .cls-1 {
        font-family: Bigroki, Bigroki;
        font-size: 152.89px;
      }

      .cls-2 {
        letter-spacing: -.02em;
      }

      .cls-3 {
        letter-spacing: 0em;
      }

      .cls-4 {
        letter-spacing: -.04em;
      }

      .cls-5 {
        font-family: BilgonRegular, Bilgon;
        font-size: 95.64px;
      }
    </style>
  </defs>
  <g id="Layer_1-2" data-name="Layer 1">
    <g>
      <g>
        <path d="M431,100.39c-1.83-.59-3.68-1.12-5.56-1.57,5.49-2.53,10.97-5.01,16.14-8.11,.61-.81,1.83,.3,2.37-.74-.18-.02-.33-.05-.48-.09,.15,.03,.3,.06,.48,.09,1.97-1.74,6.66-1.15,4.75-6.09,1.35,.67,.5,3.19,2.91,2.31,3.84-1.4,4.43-2.12,3.69-5.68,1.38,.4,.7,2.99,2.13,2.56,2.3-.69,4.58-1.81,6.5-3.24,1.03-.77-.55-2.29-.49-3.55,.16-.74,.09-1.45-.1-1.86,.16,.42,.62,.97,1.23,1.39,1.04,2.95,2.81,3.18,5.16,1.43,.33-.25,.75-.39,1.13-.58,1.7-.86,4.08-1.32,4.91-2.7,.82-1.38-1.92-2.68-2.18-4.51,2.3,.3,2.93,3.82,5.52,3.04,2.03-.61,4.03-1.59,5.7-2.98-.66-1.13-2.17-1.22-2.36-2.61,5.22,1.84,7.87,1.27,12.89-2.78-.9-.37-1.73-.78-2.6-1.06-10.68-3.43-21.16-2.41-31.44,1.58-4.93,1.91-9.49,4.35-13.76,7.2-4.84-1.14-10.05-1.55-15.45-1.19,2.73-8.06,4.03-16.41,3.16-23.98,1.64-1.04,3.16-2.35,4.33-3.94-.91-.94-2.4-.67-2.91-1.97,5.51,.54,7.95-.64,11.86-5.77-.97-.15-1.87-.35-2.78-.41-11.19-.79-21.12,2.7-30.16,9.03-4.37,3.06-8.24,6.54-11.72,10.35-1.53-7.9-4.22-15.43-8.66-22.38-4.87-7.63-11.27-13.53-20.32-17.27,1.81,4.81,1.51,10.16,7.39,11.72-1.04-.09-2.08-.19-3.51-.32,.71,2.09,1.42,3.94,1.95,5.83-4.68,6.06-7.85,13.86-9.67,22.09-4.39-3.07-9.07-5.41-13.91-6.96-.45-.96-.91-1.9-1.39-2.83,.45-.28,.92-.54,1.43-.76-.69-.19-1.39-.36-2.1-.51-3.04-5.61-6.8-10.78-11.56-15.31-5.89-5.62-12.64-9.57-20.98-11.39,3.33-1.43,4.83-3.67,6.33-8.65-.96,.2-1.87,.33-2.75,.59-10.75,3.19-18.83,9.95-25.07,19.05-6.29,9.17-9.94,19.32-12.03,30.02-2.19,.79-4.32,1.68-6.4,2.67-.85-6.56-2.52-13.13-5-19.12,.28-.44,.56-.89,.84-1.33,.05-.09-.49-.55-.76-.84,.07-.41,.15-.82,.22-1.23,3.93-.06,4.35-3.44,5.66-5.99,.07-.41,.14-.81,.22-1.22,3.41-1.46,4.03-5.11,6.55-7.75-6.49,.85-12.86,3.43-18.7,7.48-1.72-2.38-3.63-4.53-5.73-6.36-2.05,4.41-3.18,9.41-3.58,14.64-4.23,4.71-7.91,10.35-10.78,16.8-1.99-2.24-4.07-4.37-6.25-6.36,.77-3.6,.39-4.47-2.88-5.73,1.08-.94,2.89,1.04,3.31-.41,.66-2.31,.96-4.83,.8-7.22-.09-1.28-2.22-.78-3.25-1.51,.07-.4,.15-.8,.22-1.2,3.04,.73,4.2-.64,3.99-3.56-.03-.42,.08-.84,.13-1.26,.2-1.9,1.1-4.15,.39-5.59-.71-1.44-3.3,.17-4.97-.62,1.49-1.77,4.8-.39,5.55-3,.59-2.04,.85-4.25,.58-6.41-1.31-.05-2.2,1.16-3.47,.57,4.38-3.39,5.33-5.93,4.65-12.34-.8,.56-1.6,1.03-2.3,1.61-8.67,7.11-13.49,16.48-15.71,27.28-.65,3.17-1.06,6.33-1.27,9.49-1.06-.53-2.13-1.04-3.24-1.51-8.33-3.55-16.94-4.8-26.52-2.79,4.21,2.95,6.98,7.53,12.72,5.5-.91,.51-1.82,1.02-3.08,1.72,1.78,1.34,3.43,2.46,4.94,3.74,2.1,1.78,3.42-1.7,5.4-.73q-2.4,2.94,.88,5.39c.85,.63,1.84,1.14,2.53,1.91,2.06,2.29,3.77,2.08,5.32-.49,.34,.22,.68,.44,1.02,.67-1.88,2.4-1.16,4.07,1.1,5.44,.58,3.46,1.35,6.91,2.27,10.35,.28,1.06,.58,2.12,.89,3.18-1.8-.47-3.6-.86-5.38-1.17-7.08-13.59-18.54-26.22-31.39-30.45-.37,10.17,3.9,21.12,10.26,30.68-3.94,.83-7.71,2.14-11.24,3.9-9.07-4.36-18.6-7.15-28.82-7.2-9.06-.04-17.47,2.14-25.52,7.72,5.02,1.09,9.36,4.23,13.85,.14-.64,.82-1.28,1.64-2.17,2.78,2.16,.55,4.11,.94,6,1.54,2.63,.83,2.49-2.9,4.69-2.77q-1.08,3.64,2.9,4.63c1.03,.25,2.14,.34,3.08,.78,2.79,1.32,4.28,.46,4.71-2.52,.53-.53,.86-1.17,.92-1.62-.1,.45-.01,1.16,.28,1.84-.84,3.09,.65,4.33,3.54,4.64,1.36,.14,2.68,.58,4.02,.88,1.17-.33,.87-1.34,1.01-2.08,.17,.97-.39,2.31,1.17,2.76,.72,.15,1.44,.34,2.17,.45,2.42,.35,4.79,.73,7.09,1.7,2.15,.91,4.54,1.68,4.95-1.79,0,3.8,3.08,3.84,5.71,4.47,5.77,1.38,11.53,2.85,17.29,4.25,.61,.15,1.31,.77,2.01-.17-4.87-4.65-10.01-8.9-15.5-12.66,2.93,.48,5.78,1.26,8.57,1.3,4.11,4.03,8.45,7.37,12.64,9.71-1.72-2.8-3.44-5.59-5.15-8.37,2.19,.25,4.37,.7,6.56,1.04,1.08,1.4,2.15,2.79,3.23,4.2-.19-1.2-.44-2.43-.73-3.67,.7,.16,1.39,.09,1.93-1.08,.44-.96,.45,.24,.64,.5,1.15,1.6,4.17,2,6.27,1.09-.01,.97-.02,1.95,0,2.94,.61-.9,1.19-1.78,1.79-2.66,.29,.8,.94,1.24,2.14,1.26,0,0,.01,0,.02,0-1.29,1.71-2.55,3.51-3.78,5.41-.21,.02-.41,.04-.62,.07-.35-.43-.68-.84-.96-1.2-1.66-1.2-3.8-1.35-5.44-.38-1.43,.85-1.96,2.24-2.16,2.94-4.21,.88-8.29,2.03-12.21,3.51-31.5-9.95-61.19-.49-73.39,20.95,4.45-1.42,9.47-.7,11.37-6.46,.51,1.69-.76,2.52-.2,3.6,3.65-.46,7.5-.54,8.58-5.28,.05,1.01,.1,2.02,.17,3.35,3.31-.82,6.68-1.18,9.56-2.57,1.59-.77-.31-3.59,.77-5.31,.94,.32,.75,1.27,.84,1.89,.37,2.59,1.54,3.22,4.05,2.4,2.77-.91,5.69-1.36,8.52-2.14,1.05-.29,2.63,.17,2.7-1.94,.03-1.06,.51,.05,.78,.21,2.19,1.34,6.5-.41,7.21-3.12,.64,1.59,1.55,2.27,3.21,1.59,.92-.38,1.93-.54,2.93-.75-3.59,2.3-7.01,4.96-10.21,8.06-2.33,2.25-4.45,4.65-6.35,7.22-9.17,7.18-16.5,16.01-21.23,27.08-3.44,8.06-5.07,16.45-4.5,25.86,1.9-2.09,3.32-3.79,4.88-5.33,1.64-1.63,3-3.29,2.39-5.8,.65-.86,.13-1.81,.22-3.17-.03,1.74,.75,2.76,1.14,3.9,5.57-2.88,7-7.13,4.24-12.8,1.13,1.63,2.26,3.26,3.52,5.07,1.54-1.67,2.98-3.22,4.4-4.77q3.85-4.18,.53-8.62c-.76-1.01-1.45-2.08-2.39-3.44,.63,.34,1,.5,1.32,.72,2.22,1.49,3.76,5.24,6.25,4.59,2.23-.58,3.78-3.78,5.63-5.82,.13-1.81-1.59-2.32-2.82-3.91,1.16,1.31,2.05,1.97,3.21,2.18,3.21-.93,4.96-3.77,4.09-6.73,1.03,.06,1.9,1.63,3.04,.24,1.21-1.48,2.54-2.86,3.81-4.28,.71-.8,.05-1.29-.39-1.83,.38-.17,.76-.35,1.14-.52,.47,.32,.98,.38,1.63-.32,.22-.24,.45-.49,.67-.73,3.4-1.56,4.27-2.08,3.97-4.32,.41-.45,.83-.92,1.24-1.37,.46,1.01,1.07,1.79,2.11,1.94,2.28,.33,4.95-2.02,7.44-3.18,.34-.48,.68-.96,1.03-1.44,3.32,.39,6.03-1.55,6.38-4.61,.93,.45,1.12,2.24,2.71,1.4,1.69-.89,3.45-1.65,5.17-2.47,.2-.1,.33-.2,.42-.32,6.38,6.35,12.53,9.74,17.58,11.67,12.97,4.95,23.85,2.36,30,11,3.09,4.34,3.48,9.39,4,16,.82,10.46-1.34,18.59-2,21,0,0-1.19,4.35-3,10.95l29.35,5.5-30.48-1.37c-1.42,5.19-3.08,11.29-4.8,17.58l36.44,4.38-37.94,1.13c-.85,3.13-1.7,6.26-2.52,9.3l69.3,12.98-71.93-3.24c-2.1,7.82-3.76,14.09-4.42,16.79-.1,.4-.19,.8-.29,1.21l38.64,7.24-39.72-1.79c-1.19,7.14-1.73,15.5-.9,25.18l87.21,11.54c1.84-6.57,2.73-12.53,3.02-18.11l-75,1.27,70.08-12.75-70.35-21.14,74.14,11.57c-1.12-8.49-2.91-18-5.03-27.48l-33.63-5.8,31.98-1.38c-.93-3.84-1.89-7.64-2.86-11.32l-50.59-.83,46.67-13c-.41-1.38-.83-2.72-1.23-4.02l-48.97-8.45,45.5-1.96c-.59-1.83-1.85-6.07-2.99-12.11l-39.72,.67,38.69-7.04c-.24-1.74-.46-3.58-.65-5.5-1.41-14.51,.8-18.34,2-20,4.23-5.84,11.91-6.78,22-8,14.89-1.81,19.77,1.5,31-1,6.82-1.52,12.23-4.34,16.1-6.86,.13,.07,.28,.14,.46,.22,3.67,1.68,4.64,2.12,5.97,.91,.31,.22,.62,.44,.93,.66-.13,.43-.09,.8,.39,1.09,1.22,.73,2.49,1.71,3.96,2,3.96,2.82,7.76,5.52,11.55,8.22q3.89,2.77,7.35-.52c.08-.08,.3,0,.46,0q-2.16,4.49-.84,5.53,4.31,3.41,7.74,.79c.09,1.41-2.42,2.41-1.29,3.53,1.51,1.5,3.02,3.6,5.71,3.26,.23,.53,.46,1.06,.7,1.59,0,0,0,0,0,0h0c1.82,1.29,3.75,2.44,5.42,3.9,1.5,1.31,2.21,.82,3.18-.57,1.32-1.87,2.37-3.98,4.45-5.75-.58,1.41-.97,2.46-1.44,3.48q-2.54,5.51,2.5,9.01c1.57,1.08,3.33,3.18,4.69,2.95,1.88-.31,1.44-3.36,2.56-4.96,.04-.06,.14-.08,.23-.13,.62,.66,.25,1.47,.09,2.08-1.05,3.82,.12,6.54,3.76,8.16,.75,.33,1.17,1.32,2.12,1.22,1.17-.13-.03-1.76,1.47-2.18,.45,6.13,6.06,7.01,9.58,10.11-1.28-9.62-5.01-18.07-10.84-25.58-4.9-6.32-10.57-11.39-16.84-15.47-3.13-4.71-6.98-8.84-11.52-12.43-1.43-1.14-2.9-2.18-4.38-3.17,.68-.18,1.3-.65,1.79-1.66,.09-.18,.46-.52,.59,.04,.61,2.71,2.75,1.09,4.16,1.44,2.92,.71,1.6-2.31,2.68-3.46,.45,3.86,.45,3.93,6.18,3.65,4.35-.21,.73-3.84,2.26-5.44,1.44,.82,.97,2.4,1.39,3.59,.26,.75,.03,1.92,1.19,1.96,3.06,.1,6.13,.07,9.19,.03,.1,0,.19-.71,.29-1.09,.19-.82,.06-1.59-.17-2.04,.12,.51,.64,1.1,1.33,1.56,2.18,3.27,5.25,1.79,8.1,1.51,.16-.43-.23-.84-.07-1.27,.33,.38,.85,.47,1.21,.79,3.08,2.08,6.48,.62,10.07,1.31-13.28-15.68-40.29-21.29-67.48-9.3Zm-227.59-23.61s-.06-.03-.09-.05c.04-.05,.09-.08,.13-.13,0,.07-.03,.12-.04,.18Zm7.31,4.55c-.45-.31-.91-.6-1.36-.9,.86-.4,1.69-1.06,2.46-2.13-.33,.92-.67,1.84-1.1,3.03Zm6.82-12.58c-2.2-3.57-4.39-7.14-6.59-10.71,.29-1.74-1.83-2.58-1.59-4.3,3.84,4.98,7.68,9.97,11.53,14.97-1.12-.02-2.24,0-3.35,.04Zm155.13,16.54c.61-2.91,1.21-5.81,1.82-8.7,.48,.5,1.08,.8,2.16,.15,.91-.55,.24,.46,.25,.77,.02,.98,.59,1.97,1.43,2.77-.25,2.48-.5,4.96-.76,7.45-1.61-.86-3.23-1.68-4.89-2.44Zm9.37-3.26c.48,.03,.95,0,1.38-.15-.99,1.4-1.07,2.53,.41,3.56,.28,.19,.53,.41,.79,.63-.42,1.22-.82,2.45-1.16,3.71,.89-.74,1.78-1.47,2.67-2.19,.16,.16,.31,.32,.47,.47,.8,.76,1.6,1.52,2.4,2.28-.92,.85-1.84,1.72-2.74,2.62-2.46-1.66-4.97-3.19-7.55-4.61,1.19-1.96,2.3-4.08,3.32-6.32Zm24.34,4.46c1.31,.74,1.07,2.55,1.61,3.34-.25,2.3-.35,4.53-.33,6.65-1.56-.06-3.13-.1-4.71-.09-1.36,0-2.72,.05-4.08,.1-.32-1.26-.66-2.49-1.03-3.71,1.24-.27,2.47-.52,3.7-.77,.17,.48,.33,.97,.5,1.45,.2,.59,.06,1.52,1.23,1.59,.23-1.17,.43-2.35,.62-3.52,2.3-.52,4-1.37,2.49-5.04Zm-9.39-7.7c.47,1.35,.94,2.7,1.4,4.06-1.08,.73-2.14,1.52-3.2,2.32-.49-1.22-1.02-2.41-1.56-3.59,1.13-.92,2.25-1.85,3.36-2.79Zm-8.12,16c1.31-.3,2.61-.59,3.9-.88,.96,.91,1.94,1.84,2.93,2.78-1.27,.1-2.54,.21-3.82,.36-1-.77-2-1.53-3.01-2.26Zm20.03,1.74c1.05-2.19,2.1-4.38,3.14-6.56,1.26-.12,2.39-.57,2.79-2.43,.04-.2,.33-.61,.58-.1,.57,1.15,1.24,1.32,1.94,1.17-.99,2.77-1.98,5.56-2.97,8.35-1.81-.19-3.64-.33-5.48-.42Zm19.54-10.62c4.17-1.24-.21-3.9,.9-5.82,1.59,.45,1.52,2.1,2.2,3.16,.3,.46,.42,1.15,.83,1.47-.83,.86-1.65,1.74-2.46,2.63-3.05,3.36-5.96,6.84-8.48,10.63-1.53-.29-3.07-.54-4.62-.74,2.73-3.02,5.31-6.52,7.65-10.32,.87-.08,2.1-.44,3.99-1Zm-8.09-13.3c1.62-3.39,3.25-6.78,4.87-10.17,1.62-.7,1.17-2.94,2.75-3.67-1.56,4.37-3.11,8.74-4.67,13.12-.98,.21-1.96,.45-2.95,.71Zm9.02-27.24c-.15,.13-.31,.27-.46,.4-.09-.14-.18-.28-.24-.43,.24-.03,.47,0,.7,.03Zm-7.79,8.52c-.29,.39-.57,.79-.85,1.2-.14-.22-.24-.45-.29-.69,.33-.24,.66-.48,.98-.72,.05,.08,.1,.14,.15,.21Zm-13.63,11.41c1.47,.33,1.25,2.98,3.37,1.55,3.39-2.28,3.79-3.11,2.23-6.4,1.43,.06,1.39,2.74,2.68,1.98,.06-.03,.11-.07,.16-.11-2.26,4.35-4.12,8.98-5.53,13.62-1.84,.8-3.67,1.69-5.5,2.67,.14-2.35,.19-4.71,.17-7.07,1.87-1.58,5.03-2.49,2.41-6.25Zm-17.44,7.85c-.22,.4-.43,.81-.65,1.22-1.06-1.8-2.19-3.53-3.36-5.19,1.19-4.7,1.98-9.58,2.28-14.43,.04,.11,.07,.21,.11,.32,.2,.73,.41,1.47,.61,2.2h0c.26,.69,.49,1.4,.8,2.07,1.02,2.22,1.98,4.42,2.41,6.88,.13,.74,.29,1.5,.54,2.14-.95,1.57-1.86,3.17-2.75,4.8Zm-1.07-27.43c-.24,.08-.45,.16-.66,.25-.03-.42-.06-.85-.09-1.27,.1-.04,.18-.06,.28-.11,.16,.38,.31,.75,.47,1.13Zm-9.41,4.37c1.41-1.06,.44-3.13,1.8-4.22-.53,5.22-1.06,10.45-1.59,15.68-.7-.74-1.42-1.46-2.15-2.15,.65-3.11,1.3-6.21,1.95-9.32Zm-11.92,13.02c.24,.97-.67,1.32-1.13,1.72-1.97,1.71-1.87,3.05,.18,4.7,.71,.57,1.38,1.18,2.04,1.81,.02,4.55,.43,8.94,1.21,12.94-1.4-.6-2.8-1.17-4.22-1.7-.48-5.79-1.34-11.49-2.65-17.11,1.39,.37,2.68-2.34,4.57-2.36Zm-70.51,8.26c-.03-.37-.17-.8-.37-1.31-.44-1.09-.97-2.16-1.43-3.3,.22-.4,.45-.8,.67-1.2,.17,.25,.33,.5,.49,.74,.85,1.35,1.48,2.33,2.05,3.02-.48,.67-.94,1.36-1.4,2.05Zm42.03-17.21c.08-.06-.24-.7-.38-1.07,.23-.35,.45-.7,.68-1.05,1.35,.54,2.43,.48,3.38,.09,.27,.47,.53,.95,.8,1.42,.42,.61,.81,1.24,1.27,1.82,1.52,1.91,2.98,3.82,3.98,6.11,.94,2.13,2.14,4.34,4.83,2.11-2.61,2.76-.4,4.9,1.08,7.17,2.24,3.43,4.45,6.89,6.67,10.34-1.8-.57-3.62-1.06-5.44-1.49-6.59-9.23-14.5-16.4-22.99-21.27,2.07-1.36,4.11-2.76,6.13-4.19Zm5.18,33.27c.2-.48,.41-.97,.64-1.53,.06,.72,.12,1.11,.11,1.5,0,.08-.01,.17-.02,.26-.24-.08-.49-.15-.74-.22Zm-3.76-45.39c-.72,.09-1.43,.2-2.15,.32,.51-.18,1.07-.5,1.67-.98,.16,.22,.32,.44,.48,.66Zm-20.14-24.7c-.4-.05-.77-.19-1.1-.55,.23-.06,.45-.13,.67-.19,.15,.25,.29,.49,.43,.74Zm-15.67,32.79c2.38-3.32,2.46-4.25-.16-6.78,1.36-.44,2.26,2.08,3.2,.91,1.51-1.87,2.76-4.08,3.53-6.34,.41-1.21-1.75-1.58-2.41-2.65,.22-.34,.45-.68,.67-1.02,2.52,1.85,4.12,1.04,5.06-1.73,.14-.4,.4-.74,.61-1.12,.92-1.67,2.62-3.39,2.52-5-.1-1.6-3.1-1.13-4.34-2.5,2.06-1.05,4.57,1.5,6.28-.61,.83-1.02,1.55-2.17,2.13-3.39,1.57,2.72,3.37,4.97,7.32,5.05-1.03,.16-2.06,.31-3.48,.53,1.2,1.88,2.34,3.51,3.31,5.24,1.34,2.41,3.8-.39,5.31,1.21q-3.29,1.91-1.07,5.36c.57,.89,1.32,1.71,1.7,2.68,.68,1.75,1.57,2.58,2.7,2.54-7.3,1.38-14.7,4.51-21.64,9.33-4.55-.91-9.11-1.18-13.6-.78-.31-.39-.73-.78-1.33-1.2,1.49-.21,2.21,2.35,3.7,.27Zm-34.39,.51c.83-1.54,.4-2.23-.41-2.68-.08-.54-.17-1.07-.25-1.61,.33,.16,.66,.32,1,.4,.22,.05,.46,.16,.69,.27,1.41,5.34,2.82,10.68,4.23,16.05-1.02,.62-2.04,1.25-3.04,1.92-.74-4.79-1.48-9.57-2.21-14.34Zm-8.86,10.71c-.11-.17-.19-.67,.35-.47,1.23,.45,1.83,.09,2.24-.52,.77,3,1.7,5.93,2.77,8.74-1.17,.91-2.31,1.86-3.45,2.83-1.11-1.93-2.26-3.82-3.47-5.68,1.28-1.27,3-2.54,1.56-4.9Zm-19.69,11.64c.36-2.64,.69-5.28,.93-7.93,.73,.56,1.44,1.14,2.1,1.82,.54,.55,1.11,1.1,1.7,1.48-.45,1.98-.84,4.01-1.15,6.09-1.19-.52-2.38-1.02-3.58-1.47Zm10.3,4.8c.82-1.21,1.65-2.4,2.48-3.59,1.17,.86,2.33,1.73,3.49,2.59-.96,.93-1.9,1.88-2.83,2.85-1.05-.65-2.09-1.27-3.15-1.86Zm14.48,31.89c-4.88-1.92-8.99-4.33-12.39-6.81,6.07-2.81,12.21-5.73,18.78-8.8-9.82-1.59-19.08-1.89-28.22-.9,3.72-1.48,7.26-2.9,10.7-4.27,4.72,.76,9.5,1.52,14.65,2.34-2.09-2.02-4.24-3.88-6.42-5.63,.97-.39,1.94-.77,2.9-1.16,.43-.17,.81-.32,1.16-.47,.06,.04,.11,.08,.17,.12,.5,.37,.91,1.22,1.91,.62-.21-.47-.42-.94-.63-1.4,1.77-.95,1.6-1.85,.94-5.33-.02-.11,.16-.25,.25-.39,1.21,1.98,1.86,3.03,2.36,3.54,.96,1.53,1.95,2.97,2.98,4.28-.22-1.43-.44-2.85-.66-4.28,3.34-1.14,4.31-1.55,4.47-3.18,.56,2.13,1.12,4.25,1.68,6.38,.48-1.97,.85-4.06,1.11-6.24,1.43-.28,2.99-.53,4.14-1.51,.02,1.59,.09,3.18,.24,4.79,1.22-2.16,2.49-4.29,3.76-6.41,1.65-.71,3.29-1.45,5.01-1.94,.27-.08,.49-.16,.69-.25-2.79,4.39-5.28,9.22-7.39,14.51,5.71-3.73,10.95-7.26,16.31-10.59,2.58-1.6,5.22-2.9,1.92-6.45,2.07,.33,2.06,3.68,3.88,2.45,1.62-1.1,4.92-1.07,4.41-4.44-.03-.2,.09-.69,.51-.3,1.58,1.47,2.45,.26,3.39-.59,.27,.1,.53,.21,.8,.29,1.69,.54,2.25-2.82,4.21-3.33,.46,.88-.33,1.44-.69,1.94-1.51,2.13-1.09,3.4,1.29,4.53,2.64,1.24,5.07,2.92,7.66,4.3,.96,.51,1.79,1.93,3.29,.45,.75-.75,.34,.39,.42,.69,.16,.6,.54,1.15,1.05,1.62-2.57,.13-5.15,.4-7.77,.85-5.05,.86-9.85,2.33-14.49,4.49-8.17,.29-16.22,1.97-24.09,5.39-1.82,.79-3.57,1.67-5.28,2.62-.44-.68-.87-1.35-1.25-2.01-.22-.14-2.38-1.48-4.78-.5-1.68,.68-2.44,2.07-2.64,2.47,.47,1.23,1.12,2.73,2.01,4.41-3.24,2.47-6.26,5.34-9.09,8.71,2.82-.21,5.01-.47,7.21-.52,2.25-.05,4.32-.33,5.62-2.42,.24,.31,.49,.62,.75,.94-.05,.12-.1,.25-.15,.37,.19,.05,.37,.09,.56,.14,.54,.63,1.12,1.27,1.73,1.9,4,4.12,8.13,6.58,11,8-4.91,.87-16.63,2.25-30-3Zm27.89-8.84c-.37-.28-.73-.56-1.08-.85,.72-1.01,1.31-2.25,1.78-3.74-.23,1.5-.46,3-.7,4.59Zm56.11,12.84c-6.44,1.5-6.9-.24-12,1-10.62,2.58-13.1,11.23-18,10-4.22-1.06-2.55-7.5-9-14-4.87-4.92-8.6-4.04-15.22-8.47,1.49-.1,2.92-.2,4.35-.29q5.67-.39,6.3-5.9c.15-1.26,.37-2.5,.62-4.14,.23,.68,.38,1.05,.47,1.43,.59,2.61-.87,6.39,1.39,7.63,2.02,1.11,5.34-.15,8.08-.36,.49-.33,.98-.66,1.47-.99,2.97,1.53,6.19,.67,7.59-2.08,.71,.75,.26,2.49,2.05,2.26,1.89-.24,3.81-.33,5.71-.5,1.1-.1,.91-.96,.98-1.67,.39-.53,.07-1.43,.9-1.73,.54,1.06-.45,3.24,1.68,3.1,6.24-.41,12.49-.91,19.01-1.44,1.1,.26,2.21,.17,3.22-.26,.7-.06,1.39-.11,2.09-.17,.03,.69,.13,1.35,1.24,1.47,1.9,.22,3.78,.58,5.66,.88,.1,.02,.18,.01,.27,.01-1,2.31-2.52,4.87-4.86,7.22-4.83,4.86-10.55,6.19-14,7Zm22-2c-2.11-2.63-.85-7.41,.92-11.53,5.28,.93,10.58,1.8,16.07,2.69,3.58,1.42,7.05,2.8,10.49,4.16-13.52,6.94-24.23,8.71-27.48,4.68Zm45.01-1.41c.08-.1,.16-.2,.25-.31,.03,.11,.05,.21,.05,.32-.1,0-.2,0-.3-.01Zm18.42,2.63c.26-.5,.56-.99,.91-1.48-.09,.61-.17,1.14-.24,1.65-.22-.06-.45-.12-.67-.17Zm5.73-7.77c-.01-.32-.04-.66-.1-1.04,.4,.38,.56,.84,.63,1.33-.18-.1-.35-.19-.53-.29Z"/>
        <path d="M276.4,293.29l45.18,5.43-43.29,1.29c.83,2.72,1.76,5.53,2.81,8.4l52.48,6.31-49.45,1.48c.87,2.11,1.81,4.26,2.8,6.44,18.23,1.47,36.46-1.47,54.69,0,4.81-7.5,8.6-14.33,11.58-20.62,.81-1.71,1.55-3.38,2.24-5.01,1.62-3.81,2.92-7.42,3.96-10.86l-84.04,2.77c.31,1.43,.66,2.89,1.04,4.37Z"/>
      </g>
      <text class="cls-1" transform="translate(0 534.98) scale(.98 1)"><tspan class="cls-4" x="0" y="0">P</tspan><tspan x="103.66" y="0">alm</tspan><tspan class="cls-2" x="428.23" y="0">i</tspan><tspan class="cls-3" x="479.45" y="0">e</tspan><tspan x="556.5" y="0">r</tspan></text>
      <text class="cls-5" transform="translate(82.06 640.47)"><tspan x="0" y="0">Madagascar</tspan></text>
    </g>
  </g>
</svg>